<svg xmlns="http://www.w3.org/2000/svg" viewBox="0 0 330 360" width="100%" height="100%">
  <rect width="330" height="360" fill="#022f22"/>
  <rect x="15" y="15" width="300" height="330" rx="12" fill="#065f46" stroke="#10b981" stroke-width="4"/>
  <text x="165" y="40" fill="#a7f3d0" font-family="monospace" font-size="11" font-weight="bold" text-anchor="middle">N-O-C-H • TOO CLEAN</text>
  
  <g transform="translate(45, 60)">
    <rect width="240" height="240" fill="#ffffff"/>
    <rect x="15" y="15" width="60" height="60" fill="#ffffff" stroke="#10b981" stroke-width="12"/>
    <rect x="33" y="33" width="24" height="24" fill="#10b981"/>
    <rect x="165" y="15" width="60" height="60" fill="#ffffff" stroke="#10b981" stroke-width="12"/>
    <rect x="183" y="33" width="24" height="24" fill="#10b981"/>
    <rect x="15" y="165" width="60" height="60" fill="#ffffff" stroke="#10b981" stroke-width="12"/>
    <rect x="33" y="183" width="24" height="24" fill="#10b981"/>

    <rect x="90" y="15" width="90" height="90" fill="#065f46"/>
    <rect x="180" y="15" width="12" height="114" fill="#065f46"/>
    <rect x="90" y="111" width="114" height="12" fill="#065f46"/>
    <rect x="210" y="30" width="12" height="114" fill="#065f46"/>
    
    <rect x="15" y="90" width="114" height="12" fill="#065f46"/>
    <rect x="90" y="90" width="60" height="60" fill="#065f46"/>
    <rect x="102" y="102" width="36" height="36" fill="#ffffff"/>
    <rect x="114" y="114" width="12" height="12" fill="#10b981"/>

    <rect x="165" y="90" width="12" height="120" fill="#065f46"/>
    <rect x="222" y="90" width="120" height="12" fill="#065f46"/>
    <rect x="90" y="165" width="114" height="114" fill="#065f46"/>
  </g>

  <text x="165" y="318" fill="#d1fae5" font-family="monospace" font-size="9" text-anchor="middle">Epoch: 7784443032 | N-O-C-H Lattice</text>
  <text x="165" y="335" fill="#10b981" font-family="monospace" font-size="8" text-anchor="middle">NITROGEN • OXYGEN • CARBON • HYDROGEN</text>
</svg>
